# xmcd
#
# Track frame offsets:
#	150
#	13159
#	28164
#	44467
#	57963
#	71127
#	86734
#	99667
#	113874
#	126068
#	138267
#	151343
#
# Disc length: 2402 seconds
#
# Revision: 0
# Processed by: cddbd v1.5.2PL0 Copyright (c) Steve Scherf et al.
# Submitted via: dBpowerAMP V4.0
#
DISCID=a609600c
DTITLE=Metro Station - Metro Station
DYEAR=2009
DGENRE=Rock
TTITLE0=Seventeen Forever
TTITLE1=Control
TTITLE2=Kelsey
TTITLE3=Shake It
TTITLE4=Wish We Were Older
TTITLE5=Now That We're Done
TTITLE6=True To Me
TTITLE7=Tell Me What To Do
TTITLE8=California
TTITLE9=Disco
TTITLE10=After The Fall
TTITLE11=Shake It (The Lindbergh Palace Remix)
EXTD=
EXTT0=
EXTT1=
EXTT2=
EXTT3=
EXTT4=
EXTT5=
EXTT6=
EXTT7=
EXTT8=
EXTT9=
EXTT10=
EXTT11=
PLAYORDER=
